<?xml version="1.0" standalone="no"?><!DOCTYPE svg PUBLIC "-//W3C//DTD SVG 1.1//EN" "http://www.w3.org/Graphics/SVG/1.1/DTD/svg11.dtd"><svg t="1615269985365" class="icon" viewBox="0 0 1024 1024" version="1.1" xmlns="http://www.w3.org/2000/svg" p-id="9386" xmlns:xlink="http://www.w3.org/1999/xlink" width="200" height="200"><defs><style type="text/css"></style></defs><path d="M524.552258 848.929032c184.32 0 333.625806-149.966452 333.625807-333.625806s-149.966452-333.625806-333.625807-333.625807c-184.32 0-333.625806 149.966452-333.625806 333.625807s149.305806 333.625806 333.625806 333.625806m0 48.227097c-210.745806 0-381.852903-171.107097-381.852903-381.852903s171.107097-381.852903 381.852903-381.852903 381.192258 171.107097 381.192258 381.852903-170.446452 381.852903-381.192258 381.852903z" p-id="9387"></path><path d="M500.769032 340.232258V673.858065c0 13.212903 10.570323 23.783226 23.783226 23.783225S548.335484 687.070968 548.335484 673.858065V340.232258c0-13.212903-10.570323-23.783226-23.783226-23.783226s-23.783226 10.570323-23.783226 23.783226" p-id="9388"></path><path d="M691.695484 483.592258H357.409032c-13.212903 0-23.783226 10.570323-23.783226 23.783226s10.570323 23.783226 23.783226 23.783226h333.625807c13.212903 0 23.783226-10.570323 23.783226-23.783226 0.660645-13.212903-9.909677-23.783226-23.122581-23.783226" p-id="9389"></path></svg>