<?xml version="1.0" standalone="no"?><!DOCTYPE svg PUBLIC "-//W3C//DTD SVG 1.1//EN" "http://www.w3.org/Graphics/SVG/1.1/DTD/svg11.dtd"><svg t="1615268228884" class="icon" viewBox="0 0 1024 1024" version="1.1" xmlns="http://www.w3.org/2000/svg" p-id="4388" xmlns:xlink="http://www.w3.org/1999/xlink" width="200" height="200"><defs><style type="text/css"></style></defs><path d="M742.5536 906.0864H285.2864c-17.8176 0-32.3072-14.7456-32.3072-32.9216v-328.192c-4.1472 1.8944-8.5504 2.8672-13.3632 2.8672a32.2048 32.2048 0 0 1-23.296-10.2912L80.2304 391.2704c-11.9808-12.8512-11.8272-32.8704 0.256-45.6192l197.888-207.616a32.16384 32.16384 0 0 1 23.1936-9.984h79.7696c5.6832 0 11.3152 1.536 16.2304 4.4544 18.7392 11.1104 57.6512 34.1504 119.3472 34.1504 55.7568 0 105.216-28.3136 114.5856-33.9456 4.9664-3.0208 10.7008-4.608 16.4864-4.608h87.1936c8.6528 0 17.1008 3.6352 23.1424 9.9328l184.064 192.6656c12.032 12.5952 12.2368 32.5632 0.4608 45.4144l-137.8816 150.7328a31.88224 31.88224 0 0 1-30.1056 9.8304v336.5376c0.0512 18.0736-14.4896 32.8704-32.3072 32.8704z m-448.6144-40.96h439.9616v-341.6064c0-12.9536 7.4752-24.7296 19.0976-30.0544 8.7552-3.9936 18.432-3.84 26.7776 0.1536l127.9488-139.8784-176.4864-184.7296h-80.7936c-18.0224 10.6496-71.424 38.6048-133.5808 38.6048-70.4512 0-116.8384-26.0608-138.0864-38.6048H305.4592L115.1488 368.64l124.7744 134.0928a31.70304 31.70304 0 0 1 33.4848-6.2464c12.4928 4.9664 20.5312 16.9984 20.5312 30.6688v337.9712z m358.8096-697.4464c-0.0512 0-0.0512 0 0 0-0.0512 0-0.0512 0 0 0z" fill="#888888" p-id="4389"></path></svg>