<?xml version="1.0" standalone="no"?><!DOCTYPE svg PUBLIC "-//W3C//DTD SVG 1.1//EN" "http://www.w3.org/Graphics/SVG/1.1/DTD/svg11.dtd"><svg t="1615362076149" class="icon" viewBox="0 0 1024 1024" version="1.1" xmlns="http://www.w3.org/2000/svg" p-id="10115" xmlns:xlink="http://www.w3.org/1999/xlink" width="200" height="200"><defs><style type="text/css"></style></defs><path d="M934.571825 222.816435c-57.122112-83.314163-136.602267-147.388288-229.846449-185.300362-10.24802-4.164008-21.918043 0.766001-26.080051 11.002022-4.162008 10.24002 0.764001 21.914043 11.002022 26.078051 85.958168 34.948068 159.236311 94.028184 211.908414 170.854333 53.916105 78.642154 82.418161 170.812334 82.418161 266.548521 0 260.246508-211.726414 471.970922-471.970922 471.970922S40.030078 772.247508 40.030078 511.999 251.754492 40.030078 511.999 40.030078c11.056022 0 20.014039-8.962018 20.014039-20.014039S523.055022 0 511.999 0C229.680449 0 0 229.682449 0 511.999s229.680449 511.999 511.999 511.999 511.999-229.680449 511.999-511.999c0.004-103.848203-30.92006-203.848398-89.426175-289.182565z" fill="" p-id="10116"></path><path d="M426.328833 279.652546c-44.144086 0-80.058156 35.91407-80.058157 80.058157 0 44.144086 35.91407 80.058156 80.058157 80.058156s80.058156-35.91407 80.058156-80.058156c0-44.144086-35.91407-80.058156-80.058156-80.058157z m0 120.088235c-22.072043 0-40.030078-17.958035-40.030079-40.030078s17.958035-40.030078 40.030079-40.030079 40.030078 17.958035 40.030078 40.030079-17.958035 40.030078-40.030078 40.030078zM764.373493 279.652546c-44.144086 0-80.058156 35.91407-80.058156 80.058157 0 44.144086 35.91407 80.058156 80.058156 80.058156s80.058156-35.91407 80.058156-80.058156c0.002-44.144086-35.91407-80.058156-80.058156-80.058157z m0 120.088235c-22.072043 0-40.030078-17.958035-40.030078-40.030078s17.958035-40.030078 40.030078-40.030079 40.030078 17.958035 40.030078 40.030079-17.958035 40.030078-40.030078 40.030078zM791.753546 670.319309H430.558841a20.010039 20.010039 0 0 0-20.014039 20.014039c0 11.054022 8.958017 20.014039 20.014039 20.014039h361.196705c11.056022 0 20.014039-8.962018 20.014039-20.014039 0-11.054022-8.960018-20.014039-20.016039-20.014039z" fill="" p-id="10117"></path><path d="M634.011238 37.494073m-20.014039 0a20.014039 20.014039 0 1 0 40.028078 0 20.014039 20.014039 0 1 0-40.028078 0Z" fill="" p-id="10118"></path></svg>