<?xml version="1.0" standalone="no"?><!DOCTYPE svg PUBLIC "-//W3C//DTD SVG 1.1//EN" "http://www.w3.org/Graphics/SVG/1.1/DTD/svg11.dtd"><svg t="1615361837742" class="icon" viewBox="0 0 1024 1024" version="1.1" xmlns="http://www.w3.org/2000/svg" p-id="7363" xmlns:xlink="http://www.w3.org/1999/xlink" width="200" height="200"><defs><style type="text/css"></style></defs><path d="M346.6 432c30.6 0 55.2-25.2 55.2-56.2 0-31.2-24.8-56.4-55.2-56.4-30.6 0-55.2 25.2-55.2 56.4-0.2 31 24.6 56.2 55.2 56.2z m331.4 0c30.6 0 55.2-25.2 55.2-56.2 0-31.2-24.8-56.4-55.2-56.4s-55.2 25.2-55.2 56.4c0 31 24.8 56.2 55.2 56.2zM512.2 4C231.6 4 4 231.4 4 512s227.6 508 508.2 508 508.2-227.4 508.2-508C1020.6 231.4 793 4 512.2 4z m1.6 997.6c-268.8 0-486.8-218-486.8-486.8S245 28 513.8 28s486.8 218 486.8 486.8-217.8 486.8-486.8 486.8z m241.6-479.4c-12.2 0-22 10-22 22.6 0 124.4-99 225.4-221 225.4s-221-101-221-225.4c0-12.4-10-22.6-22-22.6-12.2 0-22 10-22 22.6 0 149.2 118.8 270.4 265.2 270.4S777.4 694 777.4 544.8c0-12.6-9.8-22.6-22-22.6z" fill="" p-id="7364"></path></svg>