<?xml version="1.0" standalone="no"?><!DOCTYPE svg PUBLIC "-//W3C//DTD SVG 1.1//EN" "http://www.w3.org/Graphics/SVG/1.1/DTD/svg11.dtd"><svg t="1615362040583" class="icon" viewBox="0 0 1024 1024" version="1.1" xmlns="http://www.w3.org/2000/svg" p-id="9276" xmlns:xlink="http://www.w3.org/1999/xlink" width="200" height="200"><defs><style type="text/css"></style></defs><path d="M512 0C229.75 0 0 229.75 0 512s229.75 512 512 512S1024 794.25 1024 512 794.25 0 512 0zM929.375 530.75c-9.375 212.375-176.375 383.5-388.25 398.125l-4.875 0.375c-21.75 1.625-44 1.25-66.25-1-7.5-0.75-15-2-22.625-3.375l-10.875-1.625c-2.375-0.375-4.75-0.625-7-1.125-165.875-33.125-294.375-161.75-327.5-327.75-0.375-1.5-0.625-3.125-0.875-5.5-0.25-1.875-0.5-3.75-1.375-8.25-1.5-8.875-3-17.625-3.875-26.625-1.375-13.75-2.125-27.75-2.125-42 0-109.125 42.375-208.375 111.125-283l0-24.25 24.25 0c74.5-68.75 173.875-111.125 283-111.125 14 0 28.125 0.75 42 2.125 8.5 0.875 16.875 2.25 25.375 3.75l9.375 1.375c1.875 0.25 3.875 0.5 5.875 0.875 77 15.375 145.375 52.125 200.625 102.875l24.125 0 0 24.125C870 284 906.625 352.5 922 429.5c0.5 1.875 0.75 4 1.125 7.125l1.75 11c1.25 7.375 2.5 14.75 3.375 22.375 1.375 13.75 2.125 27.875 2.125 42 0 3.75-0.25 7.5-0.5 11.375L929.375 530.75z" p-id="9277"></path><path d="M691.25 512c-42.375 0-76.75-34.375-76.75-76.75 0-42.375 34.375-76.75 76.75-76.75 42.375 0 76.75 34.375 76.75 76.75C768 477.625 733.625 512 691.25 512L691.25 512z" p-id="9278"></path><path d="M332.75 512c-42.375 0-76.75-34.375-76.75-76.75 0-42.375 34.375-76.75 76.75-76.75 42.375 0 76.75 34.375 76.75 76.75C409.625 477.625 375.25 512 332.75 512L332.75 512z" p-id="9279"></path><path d="M287 705.5 737 705.5 287 705.5Z" p-id="9280"></path><path d="M287 678l450 0 0 55-450 0 0-55Z" p-id="9281"></path></svg>