<?xml version="1.0" standalone="no"?><!DOCTYPE svg PUBLIC "-//W3C//DTD SVG 1.1//EN" "http://www.w3.org/Graphics/SVG/1.1/DTD/svg11.dtd"><svg t="1615361947041" class="icon" viewBox="0 0 1024 1024" version="1.1" xmlns="http://www.w3.org/2000/svg" p-id="7626" xmlns:xlink="http://www.w3.org/1999/xlink" width="200" height="200"><defs><style type="text/css"></style></defs><path d="M519.4 920.8c-107.5 0-209-41.5-285.9-116.7-77-75.4-120.6-176.2-122.7-284-1.1-55.2 8.6-108.9 29-159.8 19.6-49.1 48.2-93.4 85-131.7 36.8-38.3 79.9-68.6 128.2-90.2 50-22.3 103.3-34.2 158.5-35.3 2.8-0.1 5.5-0.1 8.3-0.1 107.5 0 209 41.5 285.9 116.7 77 75.4 120.6 176.2 122.7 284 1.1 55.2-8.6 108.9-29 159.8-19.6 49.1-48.2 93.4-85 131.7-36.8 38.3-79.9 68.6-128.2 90.2-50 22.3-103.3 34.2-158.5 35.3-2.8 0.1-5.5 0.1-8.3 0.1z m0.3-789.6c-2.6 0-5.2 0-7.7 0.1-210 4.2-377.4 178.4-373.2 388.4C142.9 725.5 313.6 893 519.4 893c2.6 0 5.2 0 7.7-0.1 210-4.2 377.4-178.4 373.2-388.4-4.1-205.9-174.8-373.3-380.6-373.3z" fill="#263554" p-id="7627"></path><path d="M384.1 389.7m-30 0a30 30 0 1 0 60 0 30 30 0 1 0-60 0Z" fill="#263554" p-id="7628"></path><path d="M655.1 389.7m-30 0a30 30 0 1 0 60 0 30 30 0 1 0-60 0Z" fill="#263554" p-id="7629"></path><path d="M393.7 695.5c4.2 5.8 12 7.5 18.2 4 31.9-17.8 68.6-28 107.6-28 39.1 0 75.8 10.2 107.6 28 6.2 3.5 14 1.7 18.2-4 4.9-6.8 2.9-16.4-4.4-20.5-36.7-20.5-78.2-31.5-121.5-31.5-43.2 0-84.8 10.9-121.5 31.5-7.1 4.1-9.2 13.7-4.2 20.5z" fill="#263554" p-id="7630"></path></svg>