<?xml version="1.0" standalone="no"?><!DOCTYPE svg PUBLIC "-//W3C//DTD SVG 1.1//EN" "http://www.w3.org/Graphics/SVG/1.1/DTD/svg11.dtd"><svg t="1616481903618" class="icon" viewBox="0 0 1024 1024" version="1.1" xmlns="http://www.w3.org/2000/svg" p-id="3124" xmlns:xlink="http://www.w3.org/1999/xlink" width="32" height="32"><defs><style type="text/css"></style></defs><path d="M772 333c17.496 0 31.713 14.042 32 31.47V816c0 52.49-42.125 95.14-94.412 95.987L708 912H317c-52.49 0-95.14-42.125-95.987-94.412L221 816V365c0-17.673 14.327-32 32-32 17.496 0 31.713 14.042 31.996 31.47l0.004 0.53v451c0 17.496 14.042 31.713 31.47 31.996l0.53 0.004h391c17.496 0 31.713-14.042 31.996-31.47L740 816V365c0-17.673 14.327-32 32-32z m-338 79c17.673 0 32 14.327 32 32v236c0 17.673-14.327 32-32 32-17.673 0-32-14.327-32-32V444c0-17.673 14.327-32 32-32z m157 0c17.673 0 32 14.327 32 32v236c0 17.673-14.327 32-32 32-17.673 0-32-14.327-32-32V444c0-17.673 14.327-32 32-32z m249-199c17.673 0 32 14.327 32 32 0 17.673-14.327 32-32 32H184c-17.673 0-32-14.327-32-32 0-17.673 14.327-32 32-32h656zM601 112c17.673 0 32 14.327 32 32 0 17.673-14.327 32-32 32H433c-17.673 0-32-14.327-32-32 0-17.673 14.327-32 32-32h168z" p-id="3125"></path></svg>