<?xml version="1.0" standalone="no"?><!DOCTYPE svg PUBLIC "-//W3C//DTD SVG 1.1//EN" "http://www.w3.org/Graphics/SVG/1.1/DTD/svg11.dtd"><svg t="1615350613963" class="icon" viewBox="0 0 1024 1024" version="1.1" xmlns="http://www.w3.org/2000/svg" p-id="6965" xmlns:xlink="http://www.w3.org/1999/xlink" width="200" height="200"><defs><style type="text/css"></style></defs><path d="M896 128a128 128 0 0 1 128 128v512a128 128 0 0 1-128 128H384a42.666667 42.666667 0 0 1-30.165333-12.501333L281.002667 810.666667 12.501333 542.165333a42.666667 42.666667 0 0 1 0-60.330666L344.32 149.973333l9.514667-9.514666a42.666667 42.666667 0 0 1 24.576-12.117334L384 128h512z m0 85.333333H401.621333l-298.624 298.666667 298.666667 298.666667H896a42.666667 42.666667 0 0 0 42.368-37.674667L938.666667 768V256a42.666667 42.666667 0 0 0-37.674667-42.368L896 213.333333zM549.546667 361.130667L640 451.669333l90.538667-90.538666a42.666667 42.666667 0 0 1 60.330666 60.373333L700.330667 512l90.538666 90.496a42.666667 42.666667 0 0 1-60.330666 60.373333L640 572.330667l-90.496 90.538666a42.666667 42.666667 0 0 1-60.330667-60.373333L579.669333 512l-90.496-90.496a42.666667 42.666667 0 1 1 60.330667-60.373333z" fill="#666666" p-id="6966"></path></svg>