<?xml version="1.0" standalone="no"?><!DOCTYPE svg PUBLIC "-//W3C//DTD SVG 1.1//EN" "http://www.w3.org/Graphics/SVG/1.1/DTD/svg11.dtd"><svg t="1616481962029" class="icon" viewBox="0 0 1024 1024" version="1.1" xmlns="http://www.w3.org/2000/svg" p-id="3897" xmlns:xlink="http://www.w3.org/1999/xlink" width="32" height="32"><defs><style type="text/css"></style></defs><path d="M764.5 793.6H228.6c-13.9 0-25.1 11.3-25.1 25.1 0 13.9 11.2 25.1 25.1 25.1h535.9c13.9 0 25.1-11.3 25.1-25.1s-11.3-25.1-25.1-25.1zM323.1 727.4c5.7 0 11.4-0.6 17-1.8L450 702.1c2.9-1.9 7-4.6 10-6.5 10.7-15.6 18.4-33.3 22.2-52.4 8.9-45-4.2-89-36-120.8-31.8-31.7-75.8-44.8-120.8-36-15.3 3-29.7 8.6-42.9 16.2-8.4 4.8-14.5 12.9-16.6 22.3-7 30.8-23 103.5-23 103.5-5.7 27.2 2.6 55.3 22.3 74.9 15.6 15.7 36.4 24.1 57.9 24.1z" p-id="3898"></path><path d="M353.4 433.9c48 0.3 94.1 18.8 128.3 53 34.2 34.2 52.8 80.3 53 128.3 0 7.6 9.1 11.5 14.5 6.1l235.4-235.4c14.4-14.4 21.3-34.3 18.7-54.9-1.9-15.1-9.8-29-20.5-39.8L675.6 183.9c-25.5-25.5-67.3-25.5-92.8 0L347.4 419.4c-5.4 5.4-1.6 14.4 6 14.5z m214.4-182.4c9.8-9.8 25.7-9.8 35.5 0L714.8 363c9.8 9.8 9.8 25.7 0 35.5-4.9 4.9-11.3 7.4-17.8 7.4-6.4 0-12.9-2.5-17.8-7.4L567.8 287c-9.8-9.8-9.8-25.7 0-35.5z" p-id="3899"></path></svg>