<?xml version="1.0" standalone="no"?><!DOCTYPE svg PUBLIC "-//W3C//DTD SVG 1.1//EN" "http://www.w3.org/Graphics/SVG/1.1/DTD/svg11.dtd"><svg t="1615267120605" class="icon" viewBox="0 0 1024 1024" version="1.1" xmlns="http://www.w3.org/2000/svg" p-id="2592" xmlns:xlink="http://www.w3.org/1999/xlink" width="200" height="200"><defs><style type="text/css"></style></defs><path d="M511.999488 94.669126c230.108818 0 417.317571 187.207729 417.317571 417.317571 0 230.124168-187.207729 417.344177-417.317571 417.344177-230.109842 0-417.317571-187.220009-417.317571-417.344177C94.681918 281.876855 281.889647 94.669126 511.999488 94.669126M511.999488 66.847477c-245.445108 0-445.138196 199.693088-445.138196 445.138196 0 245.417479 199.693088 445.164802 445.138196 445.164802s445.138196-199.747323 445.138196-445.164802C957.137685 266.540565 757.444597 66.847477 511.999488 66.847477L511.999488 66.847477z" p-id="2593"></path><path d="M429.623339 570.399061c8.639774-22.061458 22.442128-42.00365 40.644699-59.283198-117.261681-4.130064-208.658274-35.210943-208.658274-83.517135L261.609765 480.57836C261.608741 523.17962 332.683497 558.715975 429.623339 570.399061z" p-id="2594"></path><path d="M497.274112 260.780375c-130.141012 0-235.665371 42.166355-235.665371 94.167706l0 31.461549c0 52.001351 105.524358 94.167706 235.665371 94.167706 4.998851 0 9.726525-0.434905 14.671141-0.597611 34.885532-19.290345 77.159334-30.755468 122.80493-30.755468 10.866489 0 21.354354 1.249457 31.732725 2.553149 41.026392-16.953114 66.455551-39.937594 66.455551-65.3688l0-31.461549C732.93846 302.94673 627.414101 260.780375 497.274112 260.780375z" p-id="2595"></path><path d="M441.794543 698.147584c-103.243409-7.878434-180.185802-37.764092-180.185802-82.10395l0 53.033867c0 52.001351 105.524358 94.195336 235.665371 94.195336 4.455475 0 8.638751-0.434905 13.041014-0.543376C481.13555 746.236835 457.7704 723.959459 441.794543 698.147584z" p-id="2596"></path><path d="M425.982416 664.187121c-4.29277-13.58439-7.281847-27.603685-7.281847-42.275849 0-6.845918 1.575892-13.313214 2.554172-19.996426-92.64605-10.161431-159.646-38.742373-159.646-80.094176l0 52.978609C261.608741 616.859209 330.889641 652.014894 425.982416 664.187121z" p-id="2597"></path><path d="M643.715369 509.10609 599.15857 509.10609 599.15857 598.111217 510.152421 598.111217 510.152421 642.669038 599.15857 642.669038 599.15857 731.675188 643.715369 731.675188 643.715369 642.669038 732.721519 642.669038 732.721519 598.111217 643.715369 598.111217Z" p-id="2598"></path></svg>