<?xml version="1.0" standalone="no"?><!DOCTYPE svg PUBLIC "-//W3C//DTD SVG 1.1//EN" "http://www.w3.org/Graphics/SVG/1.1/DTD/svg11.dtd"><svg t="1615197880976" class="icon" viewBox="0 0 1024 1024" version="1.1" xmlns="http://www.w3.org/2000/svg" p-id="1164" xmlns:xlink="http://www.w3.org/1999/xlink" width="200" height="200"><defs><style type="text/css"></style></defs><path d="M285.45 302.487v419.025h453.1V302.487h-453.1z m416.182 381.674H322.047V413.069h379.585v271.092z" fill="#AE2945" p-id="1165"></path><path d="M545.635 548.431h39.99v-31.382h65.867v-27.192h-65.867v-33.229h-39.99v33.229H370.49v27.192h175.145zM418.923 648.682h46.722v-30.334h185.847v-27.193H465.645v-30.328h-46.722v30.328H370.49v27.193h48.433z" fill="#AE2945" p-id="1166"></path><path d="M512.013 93.174C280.69 93.174 93.182 280.695 93.182 512c0 231.307 187.508 418.826 418.831 418.826 231.315 0 418.806-187.52 418.806-418.826-0.001-231.305-187.491-418.826-418.806-418.826z m-0.001 819.795c-221.459 0-400.973-179.524-400.973-400.969 0-221.442 179.514-400.969 400.973-400.969 221.453 0 400.949 179.526 400.949 400.969 0 221.444-179.496 400.969-400.949 400.969z" fill="#BB2748" p-id="1167"></path></svg>