<?xml version="1.0" standalone="no"?><!DOCTYPE svg PUBLIC "-//W3C//DTD SVG 1.1//EN" "http://www.w3.org/Graphics/SVG/1.1/DTD/svg11.dtd"><svg t="1614925814958" class="icon" viewBox="0 0 1024 1024" version="1.1" xmlns="http://www.w3.org/2000/svg" p-id="9305" xmlns:xlink="http://www.w3.org/1999/xlink" width="200" height="200"><defs><style type="text/css"></style></defs><path d="M192 320v144h48v-144zM896 64H256a64 64 0 0 0-64 64v128h48V128a16 16 0 0 1 16-16h640a16 16 0 0 1 16 16v768a16 16 0 0 1-16 16H256a16 16 0 0 1-16-16V736h-48v160a64 64 0 0 0 64 64h640a64 64 0 0 0 64-64V128a64 64 0 0 0-64-64zM240 528h-48v144h48z" fill="#999999" p-id="9306"></path><path d="M288 224H128a64 64 0 0 0 0 128h160a64 64 0 0 0 0-128z m0 96H128a32 32 0 0 1 0-64h160a32 32 0 0 1 0 64zM288 432H128a64 64 0 0 0 0 128h160a64 64 0 0 0 0-128z m0 96H128a32 32 0 0 1 0-64h160a32 32 0 0 1 0 64zM288 640H128a64 64 0 0 0 0 128h160a64 64 0 0 0 0-128z m0 96H128a32 32 0 0 1 0-64h160a32 32 0 0 1 0 64z" fill="#999999" p-id="9307"></path><path d="M416 720m24 0l384 0q24 0 24 24l0 0q0 24-24 24l-384 0q-24 0-24-24l0 0q0-24 24-24Z" fill="#999999" p-id="9308"></path><path d="M416 608m24 0l384 0q24 0 24 24l0 0q0 24-24 24l-384 0q-24 0-24-24l0 0q0-24 24-24Z" fill="#999999" p-id="9309"></path><path d="M564.32 192l67.68 134.88L699.68 192h64l-85.92 155.84h57.28v29.76h-74.4V416h74.4v28.8h-74.88V512h-56.32v-67.2h-73.92V416h73.92v-37.92h-73.92v-30.08h56.8L500.8 192z" fill="#999999" p-id="9310"></path></svg>