<?xml version="1.0" standalone="no"?><!DOCTYPE svg PUBLIC "-//W3C//DTD SVG 1.1//EN" "http://www.w3.org/Graphics/SVG/1.1/DTD/svg11.dtd"><svg t="1615543529163" class="icon" viewBox="0 0 1024 1024" version="1.1" xmlns="http://www.w3.org/2000/svg" p-id="10896" xmlns:xlink="http://www.w3.org/1999/xlink" width="200" height="200"><defs><style type="text/css"></style></defs><path d="M289.7 154.5c19.8 0 33.1-13.3 33.1-33.1V64.7c0-19.5-17.4-33.1-33.1-33.1-19.5 0-33.1 17.4-33.1 33.1v56.7c0 19.5 17.5 33.1 33.1 33.1zM645.6 154.5c15.6 0 33.1-13.6 33.1-33.1V64.7c0-19.5-17.4-33.1-33.1-33.1-19.5 0-33.1 17.4-33.1 33.1v56.7c0 19.5 17.4 33.1 33.1 33.1z" fill="#727171" p-id="10897"></path><path d="M390.6 566.9c0 25.7-10.8 45.8-32.4 60.2 30.9 15.4 46.8 38.6 47.9 69.5-5.2 52.5-38.1 80.8-98.8 84.9-55.6-3.1-87.5-26.8-95.7-71 2.1-15.4 12.4-24.2 30.9-26.2 7.2 0 14.9 6.2 23.2 18.5 11.3 18.5 25.2 27.8 41.7 27.8 22.6-2 35-14.4 37.1-37.1-3.1-24.7-14.9-36-35.5-34-20.6-4.1-30.9-13.4-30.9-27.8 0-13.4 9.3-22.6 27.8-27.8 18.5-4.1 27.8-13.9 27.8-29.3-1-16.5-10.3-25.2-27.8-26.2-14.4 0-26.2 7.2-35.5 21.6-8.3 11.3-16.5 17-24.7 17-15.4-1-23.7-10.8-24.7-29.3 7.2-37.1 35.5-58.1 84.9-63.3 50.2 3.1 78.5 27.3 84.7 72.5zM433.9 639.5c4.1-94.7 38.6-143.1 103.4-145.1 66.9 2.1 101.9 50.4 105 145.1-3.1 93.7-38.1 141-105 142-65.9-1-100.4-48.3-103.4-142z m146.6 0c1-61.8-13.4-92.6-43.2-92.6-28.8 0-42.7 30.9-41.7 92.6 0 60.7 13.9 91.1 41.7 91.1 28.8 0 43.2-30.4 43.2-91.1z" fill="#727171" p-id="10898"></path><path d="M35 313h849.6v41H35z" fill="#727171" p-id="10899"></path><path d="M864.6 920.3c0 22.9-18.6 41.6-41.6 41.6H85.6c-22.9 0-41.6-18.6-41.6-41.6v-723c0-22.9 18.6-41.6 41.6-41.6H823c22.9 0 41.6 18.6 41.6 41.6V482h40V197.3c0-45-36.6-81.6-81.6-81.6H85.6c-45 0-81.6 36.6-81.6 81.6v723c0 45 36.6 81.6 81.6 81.6H823c45 0 81.6-36.6 81.6-81.6v-88.7h-40v88.7z" fill="#727171" p-id="10900"></path><path d="M882 795.2c-76.7 0-139.1-62.4-139.1-139.1 0-76.7 62.4-139.1 139.1-139.1 76.7 0 139.1 62.4 139.1 139.1 0 76.7-62.4 139.1-139.1 139.1z m0-248.1c-60.1 0-109.1 48.9-109.1 109.1 0 60.1 48.9 109.1 109.1 109.1 60.1 0 109.1-48.9 109.1-109.1 0-60.2-48.9-109.1-109.1-109.1z" fill="#727171" p-id="10901"></path><path d="M867 692.5h-29.2c-5.8-0.5-8.9-3.4-9.5-8.7 0.5-5.2 3.7-8.1 9.5-8.7H867v-13.4h-29.2c-5.8-0.5-8.9-3.4-9.5-8.7 0.5-5.2 3.7-8.1 9.5-8.7h16.5L829.2 609c-2.1-2.6-3.2-5.5-3.2-8.7 1-8.9 6-13.9 15-15 5.2 0.5 9.2 2.6 11.8 6.3l29.2 41.8 29.2-41.8c2.6-3.7 6.6-5.8 11.8-6.3 8.9 1.1 13.9 6 15 15 0 3.2-1.1 6-3.2 8.7l-25.2 35.5h16.5c5.8 0.5 8.9 3.4 9.5 8.7-0.5 5.3-3.7 8.2-9.5 8.7H897v13.4h29.2c5.8 0.5 8.9 3.4 9.5 8.7-0.5 5.3-3.7 8.2-9.5 8.7H897v24.4c-0.5 8.9-5.5 13.4-15 13.4s-14.5-4.5-15-13.4v-24.6z" fill="#727171" p-id="10902"></path></svg>