<?xml version="1.0" standalone="no"?><!DOCTYPE svg PUBLIC "-//W3C//DTD SVG 1.1//EN" "http://www.w3.org/Graphics/SVG/1.1/DTD/svg11.dtd"><svg t="1615362800409" class="icon" viewBox="0 0 1024 1024" version="1.1" xmlns="http://www.w3.org/2000/svg" p-id="8208" xmlns:xlink="http://www.w3.org/1999/xlink" width="200" height="200"><defs><style type="text/css"></style></defs><path d="M264.55 854.5c-13.21 0-23.92-10.71-23.92-23.92V704.74c0-13.21 10.71-23.92 23.92-23.92s23.92 10.71 23.92 23.92v125.83c0 13.22-10.71 23.93-23.92 23.93zM429.51 854.5c-13.21 0-23.92-10.71-23.92-23.92V654.81c0-13.21 10.71-23.92 23.92-23.92s23.92 10.71 23.92 23.92v175.77c0 13.21-10.71 23.92-23.92 23.92zM594.49 854.5c-13.21 0-23.92-10.71-23.92-23.92V544.96c0-13.21 10.71-23.92 23.92-23.92s23.92 10.71 23.92 23.92v285.62c0 13.21-10.71 23.92-23.92 23.92zM759.45 854.5c-13.21 0-23.92-10.71-23.92-23.92V399.36c0-13.21 10.71-23.92 23.92-23.92s23.92 10.71 23.92 23.92v431.22c0 13.21-10.71 23.92-23.92 23.92z" p-id="8209"></path><path d="M242.58 624.36c-13.21 0-23.92-10.71-23.92-23.92s10.71-23.92 23.92-23.92c187.32 0 405.07-152.7 405.07-349.57 0-13.21 10.71-23.92 23.92-23.92s23.92 10.71 23.92 23.92c0 227.45-239.11 397.41-452.91 397.41z" p-id="8210"></path><path d="M582.56 316.78c-6.12 0-12.24-2.34-16.91-7.01-9.34-9.34-9.34-24.48 0-33.83l99.44-99.44a23.911 23.911 0 0 1 16.91-7.01c6.34 0 12.43 2.52 16.91 7.01l99.42 99.44c9.34 9.34 9.34 24.48 0 33.83s-24.48 9.34-33.83 0L682 227.25l-82.52 82.52a23.885 23.885 0 0 1-16.92 7.01z" p-id="8211"></path></svg>