<?xml version="1.0" standalone="no"?><!DOCTYPE svg PUBLIC "-//W3C//DTD SVG 1.1//EN" "http://www.w3.org/Graphics/SVG/1.1/DTD/svg11.dtd"><svg t="1614936095221" class="icon" viewBox="0 0 1024 1024" version="1.1" xmlns="http://www.w3.org/2000/svg" p-id="15377" xmlns:xlink="http://www.w3.org/1999/xlink" width="200" height="200"><defs><style type="text/css"></style></defs><path d="M963.118545 25.786182a40.029091 40.029091 0 0 0-8.843636 0L508.090182 75.403636a40.029091 40.029091 0 0 0-23.831273 11.450182L79.592727 491.52a40.029091 40.029091 0 0 0 0 56.692364l396.567273 396.567272a40.029091 40.029091 0 0 0 56.599273 0l404.666182-404.666181a40.029091 40.029091 0 0 0 11.450181-23.924364l49.617455-446.184727a40.029091 40.029091 0 0 0-35.374546-44.218182zM810.635636 213.643636A139.170909 139.170909 0 1 1 613.841455 410.530909a139.170909 139.170909 0 0 1 196.794181-196.794182z m-32.954181 32.954182a92.532364 92.532364 0 1 0-130.885819 130.885818 92.532364 92.532364 0 0 0 130.885819-130.885818z" p-id="15378"></path></svg>