<?xml version="1.0" standalone="no"?><!DOCTYPE svg PUBLIC "-//W3C//DTD SVG 1.1//EN" "http://www.w3.org/Graphics/SVG/1.1/DTD/svg11.dtd"><svg t="1615268301203" class="icon" viewBox="0 0 1024 1024" version="1.1" xmlns="http://www.w3.org/2000/svg" p-id="7971" xmlns:xlink="http://www.w3.org/1999/xlink" width="200" height="200"><defs><style type="text/css"></style></defs><path d="M797.866667 106.666667h-89.6v-17.066667c0-51.2-38.4-89.6-89.6-89.6h-213.333334C354.133333 0 315.733333 38.4 315.733333 89.6v17.066667H226.133333c-51.2 0-89.6 38.4-89.6 89.6v682.666666c0 51.2 38.4 89.6 89.6 89.6h123.733334V1024H384v-55.466667h285.866667V1024h34.133333v-55.466667h89.6c51.2 0 89.6-38.4 89.6-89.6v-682.666666c4.266667-46.933333-34.133333-89.6-85.333333-89.6zM349.866667 89.6c0-29.866667 25.6-55.466667 55.466666-55.466667h217.6c29.866667 0 55.466667 25.6 55.466667 55.466667v17.066667H349.866667v-17.066667zM853.333333 878.933333c0 29.866667-25.6 55.466667-55.466666 55.466667H226.133333c-29.866667 0-55.466667-25.6-55.466666-55.466667v-682.666666c0-29.866667 25.6-55.466667 55.466666-55.466667h576c29.866667 0 55.466667 25.6 55.466667 55.466667v682.666666z" fill="#2c2c2c" p-id="7972"></path><path d="M388.266667 307.2h34.133333v145.066667h-34.133333zM388.266667 738.133333h34.133333v34.133334h-34.133333zM388.266667 520.533333h34.133333v145.066667h-34.133333zM635.733333 520.533333h34.133334v145.066667h-34.133334zM635.733333 738.133333h34.133334v34.133334h-34.133334zM635.733333 307.2h34.133334v145.066667h-34.133334z" fill="#2c2c2c" p-id="7973"></path></svg>